<svg xmlns="http://www.w3.org/2000/svg" viewBox="0 0 800 600">
  <defs>
    <linearGradient id="blueGrad" x1="0%" y1="0%" x2="100%" y2="100%">
      <stop offset="0%" style="stop-color:#29B5E8"/>
      <stop offset="100%" style="stop-color:#0D47A1"/>
    </linearGradient>
    <linearGradient id="greenGrad" x1="0%" y1="0%" x2="100%" y2="100%">
      <stop offset="0%" style="stop-color:#4CAF50"/>
      <stop offset="100%" style="stop-color:#2E7D32"/>
    </linearGradient>
    <marker id="arrow" markerWidth="8" markerHeight="6" refX="8" refY="3" orient="auto">
      <polygon points="0 0, 8 3, 0 6" fill="#666"/>
    </marker>
    <filter id="shadow" x="-20%" y="-20%" width="140%" height="140%">
      <feDropShadow dx="3" dy="3" stdDeviation="3" flood-opacity="0.25"/>
    </filter>
  </defs>
  
  <text x="400" y="30" text-anchor="middle" font-family="Arial" font-size="20" font-weight="bold" fill="#1a1a2e">Clublabs Intelligence Agent Architecture</text>
  
  <rect x="250" y="50" width="300" height="60" rx="8" fill="url(#blueGrad)" filter="url(#shadow)"/>
  <text x="400" y="85" text-anchor="middle" font-family="Arial" font-size="14" font-weight="bold" fill="white">Clublabs Intelligence Agent</text>
  
  <path d="M300 110 L180 140" stroke="#666" stroke-width="2" marker-end="url(#arrow)"/>
  <path d="M400 110 L400 140" stroke="#666" stroke-width="2" marker-end="url(#arrow)"/>
  <path d="M500 110 L620 140" stroke="#666" stroke-width="2" marker-end="url(#arrow)"/>
  
  <rect x="60" y="145" width="200" height="75" rx="6" fill="url(#greenGrad)" filter="url(#shadow)"/>
  <text x="160" y="170" text-anchor="middle" font-family="Arial" font-size="12" font-weight="bold" fill="white">Cortex Analyst</text>
  <text x="160" y="188" text-anchor="middle" font-family="Arial" font-size="10" fill="white">3 Semantic Views</text>
  <text x="160" y="206" text-anchor="middle" font-family="Arial" font-size="9" fill="white">NL to SQL</text>
  
  <rect x="300" y="145" width="200" height="75" rx="6" fill="url(#greenGrad)" filter="url(#shadow)"/>
  <text x="400" y="170" text-anchor="middle" font-family="Arial" font-size="12" font-weight="bold" fill="white">Cortex Search</text>
  <text x="400" y="188" text-anchor="middle" font-family="Arial" font-size="10" fill="white">2 Search Services</text>
  <text x="400" y="206" text-anchor="middle" font-family="Arial" font-size="9" fill="white">Transcript Retrieval</text>
  
  <rect x="540" y="145" width="200" height="75" rx="6" fill="url(#greenGrad)" filter="url(#shadow)"/>
  <text x="640" y="170" text-anchor="middle" font-family="Arial" font-size="12" font-weight="bold" fill="white">SQL Functions</text>
  <text x="640" y="188" text-anchor="middle" font-family="Arial" font-size="10" fill="white">6 Agent Tools</text>
  <text x="640" y="206" text-anchor="middle" font-family="Arial" font-size="9" fill="white">KPIs, Anomalies</text>
  
  <path d="M160 220 L160 250" stroke="#666" stroke-width="2"/>
  <path d="M400 220 L400 250" stroke="#666" stroke-width="2"/>
  <path d="M640 220 L640 250" stroke="#666" stroke-width="2"/>
  
  <rect x="50" y="255" width="700" height="25" rx="4" fill="#1a1a2e" filter="url(#shadow)"/>
  <text x="400" y="273" text-anchor="middle" font-family="Arial" font-size="12" font-weight="bold" fill="white">CLUBLABS_INTELLIGENCE Database</text>
  
  <rect x="55" y="290" width="125" height="95" rx="5" fill="#E3F2FD" stroke="#1976D2" filter="url(#shadow)"/>
  <text x="117" y="310" text-anchor="middle" font-family="Arial" font-size="11" font-weight="bold" fill="#1976D2">SEMANTIC</text>
  <text x="117" y="330" text-anchor="middle" font-family="Arial" font-size="8" fill="#333">CHATBOT_CONV_SV</text>
  <text x="117" y="345" text-anchor="middle" font-family="Arial" font-size="8" fill="#333">DAILY_KPIS_SV</text>
  <text x="117" y="360" text-anchor="middle" font-family="Arial" font-size="8" fill="#333">MEMBER_SV</text>
  
  <rect x="190" y="290" width="125" height="95" rx="5" fill="#E8F5E9" stroke="#388E3C" filter="url(#shadow)"/>
  <text x="252" y="310" text-anchor="middle" font-family="Arial" font-size="11" font-weight="bold" fill="#388E3C">SEARCH</text>
  <text x="252" y="330" text-anchor="middle" font-family="Arial" font-size="8" fill="#333">CONVERSATION</text>
  <text x="252" y="345" text-anchor="middle" font-family="Arial" font-size="8" fill="#333">RESOLUTION</text>
  
  <rect x="325" y="290" width="125" height="95" rx="5" fill="#F3E5F5" stroke="#7B1FA2" filter="url(#shadow)"/>
  <text x="387" y="310" text-anchor="middle" font-family="Arial" font-size="11" font-weight="bold" fill="#7B1FA2">MODELS</text>
  <text x="387" y="330" text-anchor="middle" font-family="Arial" font-size="8" fill="#333">GET_KPIS</text>
  <text x="387" y="345" text-anchor="middle" font-family="Arial" font-size="8" fill="#333">DETECT_ANOMALIES</text>
  <text x="387" y="360" text-anchor="middle" font-family="Arial" font-size="8" fill="#333">+ 4 more</text>
  
  <rect x="460" y="290" width="125" height="95" rx="5" fill="#FFF3E0" stroke="#F57C00" filter="url(#shadow)"/>
  <text x="522" y="310" text-anchor="middle" font-family="Arial" font-size="11" font-weight="bold" fill="#F57C00">ANALYTICS</text>
  <text x="522" y="330" text-anchor="middle" font-family="Arial" font-size="8" fill="#333">DIM_* (5 tables)</text>
  <text x="522" y="345" text-anchor="middle" font-family="Arial" font-size="8" fill="#333">FACT_* (4 tables)</text>
  <text x="522" y="360" text-anchor="middle" font-family="Arial" font-size="8" fill="#333">V_* (7 views)</text>
  
  <rect x="595" y="290" width="125" height="95" rx="5" fill="#ECEFF1" stroke="#546E7A" filter="url(#shadow)"/>
  <text x="657" y="310" text-anchor="middle" font-family="Arial" font-size="11" font-weight="bold" fill="#546E7A">RAW</text>
  <text x="657" y="330" text-anchor="middle" font-family="Arial" font-size="8" fill="#333">CHATBOT_LOGS</text>
  <text x="657" y="345" text-anchor="middle" font-family="Arial" font-size="8" fill="#333">TRANSCRIPTS</text>
  
  <rect x="275" y="420" width="250" height="45" rx="6" fill="#FFEBEE" stroke="#C62828" stroke-width="2" filter="url(#shadow)"/>
  <text x="400" y="442" text-anchor="middle" font-family="Arial" font-size="12" font-weight="bold" fill="#C62828">ERS Chatbot System</text>
  <text x="400" y="458" text-anchor="middle" font-family="Arial" font-size="9" fill="#C62828">Real-time logs via Snowpipe</text>
  
  <path d="M400 420 L400 395 L657 395 L657 385" stroke="#C62828" stroke-width="2" stroke-dasharray="5,3" fill="none"/>
  
  <rect x="50" y="490" width="700" height="35" rx="4" fill="#f5f5f5" stroke="#ddd" filter="url(#shadow)"/>
  <circle cx="80" cy="507" r="7" fill="url(#blueGrad)"/>
  <text x="95" y="511" font-family="Arial" font-size="9" fill="#333">Agent</text>
  <circle cx="170" cy="507" r="7" fill="url(#greenGrad)"/>
  <text x="185" y="511" font-family="Arial" font-size="9" fill="#333">Tools</text>
  <rect x="260" y="500" width="14" height="14" rx="2" fill="#FFF3E0" stroke="#F57C00"/>
  <text x="282" y="511" font-family="Arial" font-size="9" fill="#333">Schemas</text>
  <rect x="360" y="500" width="14" height="14" rx="2" fill="#FFEBEE" stroke="#C62828"/>
  <text x="382" y="511" font-family="Arial" font-size="9" fill="#333">External</text>
</svg>