<svg xmlns="http://www.w3.org/2000/svg" viewBox="0 0 800 548">
  <defs>
    <linearGradient id="mlG" x1="0%" y1="0%" x2="100%" y2="100%">
      <stop offset="0%" style="stop-color:#9C27B0"/>
      <stop offset="100%" style="stop-color:#6A1B9A"/>
    </linearGradient>
    <linearGradient id="cxG" x1="0%" y1="0%" x2="100%" y2="100%">
      <stop offset="0%" style="stop-color:#29B5E8"/>
      <stop offset="100%" style="stop-color:#0D47A1"/>
    </linearGradient>
    <marker id="ar" markerWidth="6" markerHeight="4.5" refX="6" refY="2.25" orient="auto">
      <polygon points="0 0, 6 2.25, 0 4.5" fill="#666"/>
    </marker>
  </defs>
  
  <text x="400" y="28" text-anchor="middle" font-family="Arial" font-size="18" font-weight="bold" fill="#1a1a2e">ML Pipeline and Agent Functions</text>
  
  <rect x="50" y="45" width="700" height="60" rx="8" fill="#ECEFF1" stroke="#546E7A" stroke-width="2"/>
  <text x="400" y="68" text-anchor="middle" font-family="Arial" font-size="12" font-weight="bold" fill="#546E7A">Input Data Sources</text>
  
  <rect x="70" y="78" width="130" height="22" rx="4" fill="white" stroke="#90A4AE"/>
  <text x="135" y="93" text-anchor="middle" font-family="Arial" font-size="8" fill="#333">FACT_CONVERSATION</text>
  
  <rect x="215" y="78" width="130" height="22" rx="4" fill="white" stroke="#90A4AE"/>
  <text x="280" y="93" text-anchor="middle" font-family="Arial" font-size="8" fill="#333">FACT_DAILY_KPI</text>
  
  <rect x="360" y="78" width="130" height="22" rx="4" fill="white" stroke="#90A4AE"/>
  <text x="425" y="93" text-anchor="middle" font-family="Arial" font-size="8" fill="#333">DIM_MEMBER</text>
  
  <rect x="505" y="78" width="130" height="22" rx="4" fill="white" stroke="#90A4AE"/>
  <text x="570" y="93" text-anchor="middle" font-family="Arial" font-size="8" fill="#333">TRANSCRIPTS</text>
  
  <path d="M280 105 L280 149" stroke="#666" stroke-width="2" marker-end="url(#ar)"/>
  <path d="M520 105 L520 149" stroke="#666" stroke-width="2" marker-end="url(#ar)"/>
  
  <rect x="50" y="154" width="320" height="130" rx="8" fill="#E3F2FD" stroke="#1976D2" stroke-width="2"/>
  <text x="210" y="176" text-anchor="middle" font-family="Arial" font-size="12" font-weight="bold" fill="#1976D2">Cortex AI Functions</text>
  
  <rect x="70" y="189" width="130" height="38" rx="4" fill="url(#cxG)"/>
  <text x="135" y="207" text-anchor="middle" font-family="Arial" font-size="10" font-weight="bold" fill="white">SENTIMENT()</text>
  <text x="135" y="220" text-anchor="middle" font-family="Arial" font-size="8" fill="white">-1 to 1 score</text>
  
  <rect x="220" y="189" width="130" height="38" rx="4" fill="url(#cxG)"/>
  <text x="285" y="207" text-anchor="middle" font-family="Arial" font-size="10" font-weight="bold" fill="white">SUMMARIZE()</text>
  <text x="285" y="220" text-anchor="middle" font-family="Arial" font-size="8" fill="white">Text summaries</text>
  
  <rect x="70" y="236" width="130" height="38" rx="4" fill="url(#cxG)"/>
  <text x="135" y="254" text-anchor="middle" font-family="Arial" font-size="10" font-weight="bold" fill="white">EXTRACT()</text>
  <text x="135" y="267" text-anchor="middle" font-family="Arial" font-size="8" fill="white">Entity extraction</text>
  
  <rect x="220" y="236" width="130" height="38" rx="4" fill="url(#cxG)"/>
  <text x="285" y="254" text-anchor="middle" font-family="Arial" font-size="10" font-weight="bold" fill="white">COMPLETE()</text>
  <text x="285" y="267" text-anchor="middle" font-family="Arial" font-size="8" fill="white">LLM completion</text>
  
  <rect x="390" y="154" width="360" height="130" rx="8" fill="#F3E5F5" stroke="#7B1FA2" stroke-width="2"/>
  <text x="570" y="176" text-anchor="middle" font-family="Arial" font-size="12" font-weight="bold" fill="#7B1FA2">Agent Tool Functions</text>
  
  <rect x="410" y="189" width="155" height="35" rx="4" fill="url(#mlG)"/>
  <text x="487" y="211" text-anchor="middle" font-family="Arial" font-size="9" font-weight="bold" fill="white">GET_CHATBOT_KPIS()</text>
  
  <rect x="575" y="189" width="155" height="35" rx="4" fill="url(#mlG)"/>
  <text x="652" y="211" text-anchor="middle" font-family="Arial" font-size="9" font-weight="bold" fill="white">GET_ESCALATIONS()</text>
  
  <rect x="410" y="234" width="155" height="35" rx="4" fill="url(#mlG)"/>
  <text x="487" y="256" text-anchor="middle" font-family="Arial" font-size="9" font-weight="bold" fill="white">GET_SERVICE_PERF()</text>
  
  <rect x="575" y="234" width="155" height="35" rx="4" fill="url(#mlG)"/>
  <text x="652" y="256" text-anchor="middle" font-family="Arial" font-size="9" font-weight="bold" fill="white">GET_CHANNEL_PERF()</text>
  
  <rect x="50" y="304" width="320" height="50" rx="8" fill="#E8F5E9" stroke="#388E3C" stroke-width="2"/>
  <text x="210" y="326" text-anchor="middle" font-family="Arial" font-size="11" font-weight="bold" fill="#388E3C">Wrapper UDFs</text>
  <text x="210" y="344" text-anchor="middle" font-family="Arial" font-size="9" fill="#388E3C">ANALYZE_SENTIMENT | SUMMARIZE | EXTRACT</text>
  
  <rect x="390" y="304" width="360" height="50" rx="8" fill="#FFEBEE" stroke="#C62828" stroke-width="2"/>
  <text x="570" y="326" text-anchor="middle" font-family="Arial" font-size="11" font-weight="bold" fill="#C62828">DETECT_KPI_ANOMALIES()</text>
  <text x="570" y="344" text-anchor="middle" font-family="Arial" font-size="9" fill="#C62828">Z-score anomaly detection | 30-day baseline</text>
  
  <path d="M210 354 L210 403" stroke="#666" stroke-width="2" marker-end="url(#ar)"/>
  <path d="M570 354 L570 403" stroke="#666" stroke-width="2" marker-end="url(#ar)"/>
  
  <rect x="50" y="408" width="700" height="75" rx="8" fill="#FFF8E1" stroke="#FF8F00" stroke-width="2"/>
  <text x="400" y="433" text-anchor="middle" font-family="Arial" font-size="12" font-weight="bold" fill="#FF8F00">Agent Integration (Callable by Cortex Agent)</text>
  
  <rect x="80" y="448" width="100" height="28" rx="4" fill="white" stroke="#FFB300"/>
  <text x="130" y="466" text-anchor="middle" font-family="Arial" font-size="8" fill="#333">KPI Dashboards</text>
  
  <rect x="200" y="448" width="100" height="28" rx="4" fill="white" stroke="#FFB300"/>
  <text x="250" y="466" text-anchor="middle" font-family="Arial" font-size="8" fill="#333">Trend Analysis</text>
  
  <rect x="320" y="448" width="100" height="28" rx="4" fill="white" stroke="#FFB300"/>
  <text x="370" y="466" text-anchor="middle" font-family="Arial" font-size="8" fill="#333">Anomaly Alerts</text>
  
  <rect x="440" y="448" width="100" height="28" rx="4" fill="white" stroke="#FFB300"/>
  <text x="490" y="466" text-anchor="middle" font-family="Arial" font-size="8" fill="#333">Segmentation</text>
  
  <rect x="560" y="448" width="100" height="28" rx="4" fill="white" stroke="#FFB300"/>
  <text x="610" y="466" text-anchor="middle" font-family="Arial" font-size="8" fill="#333">Insights</text>
</svg>